#!OML:ASF F:\VICON\USERDATA\INSTALL\rory3\rory3.ASF
:FULLY-SPECIFIED
:DEGREES
79
root 0.6324992921057887 17.617451880031556 31.68563092795182 -2.4968095057842588 3.7318264708866726 0.03698497800921796
lfemur 12.492367943430999 -5.004300078813957 -22.862212712882634
ltibia 23.306779902192844
lfoot -15.799188967594567 -3.922534024056381
ltoes -23.834974804976635
rfemur -26.23984849483817 3.0527681431865776 22.727663829074558
rtibia 23.30617732807484
rfoot -6.459657344823598 -10.338362742960612
rtoes -6.399044390417127
lowerback 10.810236708364963 -1.2761496338539007 -4.017655825946456
upperback 0.17555761892871402 -2.076664032479443 1.625217853101688
thorax -5.774423266379043 -0.8712383344347185 4.744501370703697
lowerneck -16.709860058489802 -3.1190221939530076 -2.4499561672051664
upperneck 21.90083631439007 -3.859540254842626 1.136351346978771
head 9.862034479702828 -1.8422316095425146 0.30880695079803283
lclavicle 2.9836539449061757e-16 5.4778137370250934e-17
lhumerus -25.64532373247489 1.5666464240355658 79.29606068742184
lradius 34.962718544378035
lwrist 11.070634751124263
lhand -32.06170926180024 16.43061762141633
lfingers 7.125020000000001
lthumb -5.180487130048445 46.62086189907923
rclavicle 2.9657731423490355e-16 5.4934322492254906e-17
rhumerus -38.89112416562611 -25.9431827997913 -72.87559199451229
rradius 23.844997087309697
rwrist 7.731674999273743
rhand -17.77059390416002 22.7509214185288
rfingers 7.125020000000001
rthumb 8.531458024906879 -6.851367166672991
80
root 0.567760741872013 17.681899526922088 33.08360437803222 -2.694084171987567 3.077576225212387 -1.8020983605647036
lfemur 10.903248553913532 -5.753546400058074 -21.003291909110843
ltibia 29.40682062602321
lfoot -9.338438480454347 -6.844937512770486
ltoes -26.531629230765773
rfemur -24.545260484606494 3.2402767820883653 25.944055256509923
rtibia 24.925146625599023
rfoot -4.031177571851816 -7.814211355593538
rtoes -1.445089046146086
lowerback 10.88061577051123 -1.2651316117169842 -1.7522131427206509
upperback 0.017405441264160465 -1.771081806709628 2.2313866348673335
thorax -6.05622620895598 -0.7835300066854458 3.9703585980255847
lowerneck -16.561213776777528 -2.9844372279333533 -2.4061802968587687
upperneck 21.99974190178164 -3.590117253528977 0.6330696082345626
head 9.863915243646435 -1.7721304440751031 0.19547193146132513
lclavicle 2.976780949926689e-16 5.4284998445488576e-17
lhumerus -26.88489727281176 2.9723009168351533 79.62252870248142
lradius 34.044662880358196
lwrist 10.968829114326468
lhand -32.546401897644884 15.497404408187986
lfingers 7.125020000000001
lthumb -5.65444411433585 45.84413376452084
rclavicle 2.956356418058031e-16 5.41053034722663e-17
rhumerus -39.57303534174571 -27.194080724621138 -71.57802750246458
rradius 22.349759534672394
rwrist 8.940909958393036
rhand -17.776836908264595 22.58582337376204
rfingers 7.125020000000001
rthumb 8.457169573473218 -7.139048141054645
81
root 0.5112594048219542 17.74321578878082 34.05832935272807 -3.297134519178702 2.202117156060862 -2.065387901625251
lfemur 8.371844647994969 -4.918879864757505 -20.33866868873683
ltibia 36.288095055385085
lfoot 0.1042434478858345 -10.51516175160953
ltoes -27.64825636028985
rfemur -22.66360835408476 2.6919368948458673 27.469564393833032
rtibia 27.90439182900203
rfoot -5.002437613331461 -5.690745302333196
rtoes 4.273099059497147
lowerback 10.898301176881443 -0.9954235109148872 -1.6336791876826873
upperback 0.17150091510712506 -1.4154100720317315 2.2707302113000707
thorax -5.963052018450891 -0.6281911309469751 3.846438751061436
lowerneck -16.623695358185525 -2.9071110199796624 -2.3323878717147415
upperneck 22.241391507613404 -3.3978372751280306 0.28649411951624404
head 9.945384486414758 -1.727276992950042 0.11481900563900337
lclavicle 2.984087595451801e-16 5.480939711397512e-17
lhumerus -28.221485658835554 3.989004059104755 80.10292355887144
lradius 32.99330962975682
lwrist 10.253467429101466
lhand -31.452276878104346 17.576576646620214
lfingers 7.125020000000001
lthumb -4.609730911029398 48.32796615031168
rclavicle 2.9785925285190815e-16 5.553097575950334e-17
rhumerus -39.94533960597099 -28.371167884110072 -70.51921381718533
rradius 21.38936007466598
rwrist 10.467647163338471
rhand -17.795960452876123 22.275629364560185
rfingers 7.125020000000001
rthumb 8.400394358168612 -7.554860998937693
82
root 0.44969657412199127 17.851390231118447 35.00077128940394 -3.489324566201444 2.1017422445536087 -3.349084125645375
lfemur 4.626532632895482 -4.368784755032962 -18.029829352041116
ltibia 43.47062715457322
lfoot 11.696737110809067 -14.346355285974322
ltoes -12.612619962951026
rfemur -19.757945528437254 3.2682142987148133 29.67363266109108
rtibia 28.1890282383577
rfoot -5.665338080560643 -5.611934855303213
rtoes 6.626794383383648
lowerback 10.86019140570586 -0.9698334483794329 -0.2942689305391071
upperback 0.09335440958352317 -1.243502742898659 2.657472819966662
thorax -6.10913085206865 -0.5675536582334207 3.306130903262373
lowerneck -16.45882454383197 -2.8517617878776633 -2.239088852367163
upperneck 22.39564749719308 -3.332965604139294 0.04645242808493544
head 9.950684454682202 -1.7334080838248729 0.05619115453526022
lclavicle 2.9838880534441166e-16 5.479443512428022e-17
lhumerus -29.47757980471216 4.387631518065477 80.57066121329778
lradius 32.05317448863498
lwrist 9.315256523733442
lhand -29.863536576889114 19.63597132634121
lfingers 7.125020000000001
lthumb -3.0763104438939775 50.127363770033945
rclavicle 2.956022185153279e-16 5.3985167718665875e-17
rhumerus -39.680714764628405 -27.9505858075913 -70.88890337314338
rradius 21.300370371750375
rwrist 10.388930164459007
rhand -17.839331293316746 22.235460946453426
rfingers 7.125020000000001
rthumb 8.31357341821269 -7.633552013661439
